<?xml version="1.0" encoding="UTF-8" standalone="no"?>
<!-- Created with Inkscape (http://www.inkscape.org/) -->

<svg
   xmlns:dc="http://purl.org/dc/elements/1.1/"
   xmlns:cc="http://creativecommons.org/ns#"
   xmlns:rdf="http://www.w3.org/1999/02/22-rdf-syntax-ns#"
   xmlns:svg="http://www.w3.org/2000/svg"
   xmlns="http://www.w3.org/2000/svg"
   xmlns:xlink="http://www.w3.org/1999/xlink"
   xmlns:sodipodi="http://sodipodi.sourceforge.net/DTD/sodipodi-0.dtd"
   xmlns:inkscape="http://www.inkscape.org/namespaces/inkscape"
   width="210mm"
   height="297mm"
   id="svg2"
   version="1.1"
   inkscape:version="0.48.4 r9939"
   sodipodi:docname="armonia.svg">
  <defs
     id="defs4">
    <marker
       inkscape:stockid="Arrow1Lend"
       orient="auto"
       refY="0.0"
       refX="0.0"
       id="Arrow1Lend"
       style="overflow:visible;">
      <path
         id="path4027"
         d="M 0.0,0.0 L 5.0,-5.0 L -12.5,0.0 L 5.0,5.0 L 0.0,0.0 z "
         style="fill-rule:evenodd;stroke:#000000;stroke-width:1.0pt;"
         transform="scale(0.8) rotate(180) translate(12.5,0)" />
    </marker>
    <marker
       inkscape:stockid="Arrow1Lstart"
       orient="auto"
       refY="0.0"
       refX="0.0"
       id="Arrow1Lstart"
       style="overflow:visible">
      <path
         id="path4024"
         d="M 0.0,0.0 L 5.0,-5.0 L -12.5,0.0 L 5.0,5.0 L 0.0,0.0 z "
         style="fill-rule:evenodd;stroke:#000000;stroke-width:1.0pt"
         transform="scale(0.8) translate(12.5,0)" />
    </marker>
    <linearGradient
       inkscape:collect="always"
       id="linearGradient5843">
      <stop
         style="stop-color:#000000;stop-opacity:1;"
         offset="0"
         id="stop5845" />
      <stop
         style="stop-color:#000000;stop-opacity:0;"
         offset="1"
         id="stop5847" />
    </linearGradient>
    <linearGradient
       inkscape:collect="always"
       id="linearGradient5140">
      <stop
         style="stop-color:#660319;stop-opacity:1;"
         offset="0"
         id="stop5142" />
      <stop
         style="stop-color:#660319;stop-opacity:0;"
         offset="1"
         id="stop5144" />
    </linearGradient>
    <linearGradient
       inkscape:collect="always"
       id="linearGradient5124">
      <stop
         style="stop-color:#000000;stop-opacity:1;"
         offset="0"
         id="stop5126" />
      <stop
         style="stop-color:#000000;stop-opacity:0;"
         offset="1"
         id="stop5128" />
    </linearGradient>
    <radialGradient
       inkscape:collect="always"
       xlink:href="#linearGradient5124"
       id="radialGradient5130"
       cx="281.93961"
       cy="471.47983"
       fx="281.93961"
       fy="471.47983"
       r="13.5"
       gradientTransform="matrix(-2.1481527,4.2962939,-5.3003066,-2.6501598,3305.637,421.5637)"
       gradientUnits="userSpaceOnUse" />
    <radialGradient
       inkscape:collect="always"
       xlink:href="#linearGradient5140"
       id="radialGradient5146"
       cx="424.70587"
       cy="463.71545"
       fx="424.70587"
       fy="463.71545"
       r="30.359251"
       gradientTransform="matrix(1.4165292,1.8556329,-0.92744164,2.3887954,253.16664,-1427.9729)"
       gradientUnits="userSpaceOnUse" />
    <linearGradient
       inkscape:collect="always"
       xlink:href="#linearGradient5843"
       id="linearGradient5849"
       x1="124.97586"
       y1="342.73718"
       x2="146.28888"
       y2="343.44429"
       gradientUnits="userSpaceOnUse"
       gradientTransform="matrix(0.77047697,0,0,0.64592517,53.375666,255.6017)" />
  </defs>
  <sodipodi:namedview
     id="base"
     pagecolor="#ffffff"
     bordercolor="#666666"
     borderopacity="1.0"
     inkscape:pageopacity="0.0"
     inkscape:pageshadow="2"
     inkscape:zoom="1.4142136"
     inkscape:cx="281.94736"
     inkscape:cy="568.75279"
     inkscape:document-units="px"
     inkscape:current-layer="layer1"
     showgrid="false"
     inkscape:window-width="959"
     inkscape:window-height="744"
     inkscape:window-x="65"
     inkscape:window-y="24"
     inkscape:window-maximized="1" />
  <metadata
     id="metadata7">
    <rdf:RDF>
      <cc:Work
         rdf:about="">
        <dc:format>image/svg+xml</dc:format>
        <dc:type
           rdf:resource="http://purl.org/dc/dcmitype/StillImage" />
        <dc:title></dc:title>
      </cc:Work>
    </rdf:RDF>
  </metadata>
  <g
     inkscape:label="Capa 1"
     inkscape:groupmode="layer"
     id="layer1">
    <path
       inkscape:connector-curvature="0"
       id="path5152"
       d="m 155.4266,519.08761 c 0.42814,-0.15218 1.1287,-0.15218 1.55682,0 0.42812,0.1522 0.0781,0.27672 -0.7784,0.27672 -0.85626,0 -1.20654,-0.12452 -0.77842,-0.27672 z m 6.22726,0 c 0.42812,-0.15218 1.12869,-0.15218 1.55683,0 0.4281,0.1522 0.0781,0.27672 -0.77841,0.27672 -0.85627,0 -1.20655,-0.12452 -0.77842,-0.27672 z m -9.70961,-1.28242 c 0,-0.7543 0.14135,-1.06288 0.31409,-0.68572 0.17275,0.37714 0.17275,0.99431 0,1.37144 -0.17274,0.37717 -0.31409,0.0685 -0.31409,-0.68572 z m 1.44438,-0.0202 c -0.21944,-0.31278 -0.21393,-1.53371 0.0124,-2.71315 0.46459,-2.42247 -0.24664,-8.66702 -0.88372,-7.75896 -0.22817,0.32522 -0.41483,-1.15262 -0.41483,-3.2841 0,-2.13145 0.17654,-3.43203 0.39229,-2.89016 0.67238,1.68857 1.33484,-5.72256 1.13366,-12.68267 -0.31454,-10.8828 -0.17792,-13.04762 0.99696,-15.79806 1.07706,-2.52143 1.07856,-2.81851 0.0357,-7.06994 -1.27694,-5.20634 -0.96491,-9.41317 1.0774,-14.52523 1.33018,-3.32967 1.33375,-3.42851 0.2342,-6.50139 -1.18375,-3.30821 -0.98217,-5.35314 0.68869,-6.98647 1.36057,-1.32999 4.67368,-1.23399 6.12364,0.17745 2.52187,2.45483 3.15402,9.4722 0.90008,9.99144 -0.75751,0.17449 -1.32037,0.97349 -1.5953,2.26448 -0.34551,1.62248 -0.12079,2.39962 1.20427,4.16345 0.896,1.19273 1.64878,2.48251 1.67286,2.86612 0.024,0.38362 0.24662,0.24365 0.49451,-0.31108 0.25176,-0.5633 0.45075,0.69159 0.45075,2.84265 0,2.11814 -0.18714,3.7493 -0.41586,3.62477 -0.51798,-0.28203 -0.98388,2.87842 -1.82349,12.37011 -0.85647,9.68227 -1.52102,13.0235 -4.37872,22.01629 -2.97906,9.37464 -3.681,14.68413 -2.20385,16.67014 0.57412,0.77191 2.01094,1.80972 3.19293,2.30627 1.18198,0.49653 2.14906,1.10394 2.14906,1.34978 0,0.65978 -8.57638,0.54433 -9.04364,-0.12174 z m 12.25559,-0.52845 c 0,-0.75429 0.14136,-1.06288 0.3141,-0.68574 0.17274,0.37716 0.17274,0.99432 0,1.37146 -0.17274,0.37717 -0.3141,0.0685 -0.3141,-0.68572 z m -13.69997,-4.93726 c 0,-0.75428 0.14135,-1.06286 0.31409,-0.68571 0.17275,0.37715 0.17275,0.99431 0,1.37146 -0.17274,0.37714 -0.31409,0.0686 -0.31409,-0.68575 z m 13.69997,-0.54858 c 0,-0.75428 0.14136,-1.06288 0.3141,-0.68571 0.17274,0.37716 0.17274,0.99431 0,1.37145 -0.17274,0.37717 -0.3141,0.0685 -0.3141,-0.68574 z m 0,-5.48582 c 0,-0.75429 0.14136,-1.06287 0.3141,-0.68573 0.17274,0.37716 0.17274,0.99431 0,1.37147 -0.17274,0.37713 -0.3141,0.0685 -0.3141,-0.68574 z m 0,-5.48584 c 0,-0.75429 0.14136,-1.06285 0.3141,-0.68571 0.17274,0.37714 0.17274,0.9943 0,1.37145 -0.17274,0.37713 -0.3141,0.0686 -0.3141,-0.68574 z m -13.69997,-4.93724 c 0,-0.75428 0.14135,-1.06287 0.31409,-0.68574 0.17275,0.37717 0.17275,0.99433 0,1.37147 -0.17274,0.37715 -0.31409,0.0686 -0.31409,-0.68573 z m 13.69997,-0.54858 c 0,-0.75429 0.14136,-1.06289 0.3141,-0.68573 0.17274,0.37716 0.17274,0.9943 0,1.37146 -0.17274,0.37715 -0.3141,0.0685 -0.3141,-0.68573 z m -13.69997,-4.93725 c 0,-0.7543 0.14135,-1.06287 0.31409,-0.68573 0.17275,0.37717 0.17275,0.99432 0,1.37146 -0.17274,0.37715 -0.31409,0.0685 -0.31409,-0.68573 z m 13.69997,-0.54858 c 0,-0.7543 0.14136,-1.06289 0.3141,-0.68572 0.17274,0.37713 0.17274,0.99431 0,1.37146 -0.17274,0.37714 -0.3141,0.0685 -0.3141,-0.68574 z m -13.69997,-4.93724 c 0,-0.75432 0.14135,-1.06288 0.31409,-0.68572 0.17275,0.37713 0.17275,0.9943 0,1.37144 -0.17274,0.37714 -0.31409,0.0685 -0.31409,-0.68572 z m 13.69997,-0.5486 c 0,-0.75428 0.14136,-1.06287 0.3141,-0.68571 0.17274,0.37714 0.17274,0.9943 0,1.37146 -0.17274,0.37715 -0.3141,0.0685 -0.3141,-0.68575 z m -13.69997,-4.93724 c 0,-0.7543 0.14135,-1.06288 0.31409,-0.68573 0.17275,0.37714 0.17275,0.99431 0,1.37146 -0.17274,0.37716 -0.31409,0.0685 -0.31409,-0.68573 z m 13.69997,-0.54857 c 0,-0.75432 0.14136,-1.06289 0.3141,-0.68574 0.17274,0.37716 0.17274,0.99432 0,1.37145 -0.17274,0.37715 -0.3141,0.0685 -0.3141,-0.68571 z m -13.69997,-4.93725 c 0,-0.75431 0.14135,-1.0629 0.31409,-0.68575 0.17275,0.37717 0.17275,0.99431 0,1.37148 -0.17274,0.37715 -0.31409,0.0685 -0.31409,-0.68573 z m 13.69997,-0.54858 c 0,-0.75433 0.14136,-1.06287 0.3141,-0.68574 0.17274,0.37715 0.17274,0.9943 0,1.37145 -0.17274,0.37716 -0.3141,0.0686 -0.3141,-0.68571 z m -13.69997,-4.93726 c 0,-0.7543 0.14135,-1.06287 0.31409,-0.68572 0.17275,0.37715 0.17275,0.9943 0,1.37147 -0.17274,0.37714 -0.31409,0.0685 -0.31409,-0.68575 z m 13.69997,-0.54857 c 0,-0.75431 0.14136,-1.06289 0.3141,-0.68574 0.17274,0.37714 0.17274,0.99431 0,1.37146 -0.17274,0.37716 -0.3141,0.0685 -0.3141,-0.68572 z m -13.69997,-4.93727 c 0,-0.75429 0.14135,-1.06287 0.31409,-0.6857 0.17275,0.37714 0.17275,0.99429 0,1.37144 -0.17274,0.37715 -0.31409,0.0685 -0.31409,-0.68574 z m 0,-5.48582 c 0,-0.75431 0.14135,-1.06288 0.31409,-0.68572 0.17275,0.37714 0.17275,0.9943 0,1.37144 -0.17274,0.37716 -0.31409,0.0687 -0.31409,-0.68572 z m 0,-5.48583 c 0,-0.75429 0.14135,-1.06288 0.31409,-0.68573 0.17275,0.37715 0.17275,0.99431 0,1.37147 -0.17274,0.37715 -0.31409,0.0685 -0.31409,-0.68574 z m 13.69997,-0.54858 c 0,-0.75431 0.14136,-1.06288 0.3141,-0.68573 0.17274,0.37715 0.17274,0.99431 0,1.37145 -0.17274,0.37716 -0.3141,0.0687 -0.3141,-0.68572 z m -13.69997,-4.93725 c 0,-0.7543 0.14135,-1.06288 0.31409,-0.68573 0.17275,0.37716 0.17275,0.99432 0,1.37147 -0.17274,0.37714 -0.31409,0.0685 -0.31409,-0.68574 z m 13.69997,-0.54858 c 0,-0.75429 0.14136,-1.06288 0.3141,-0.68574 0.17274,0.37716 0.17274,0.99431 0,1.37146 -0.17274,0.37717 -0.3141,0.0686 -0.3141,-0.68572 z m -13.69997,-4.93725 c 0,-0.75429 0.14135,-1.06286 0.31409,-0.68572 0.17275,0.37715 0.17275,0.99432 0,1.37146 -0.17274,0.37713 -0.31409,0.0685 -0.31409,-0.68574 z m 13.69997,-0.54858 c 0,-0.75428 0.14136,-1.06289 0.3141,-0.68572 0.17274,0.37715 0.17274,0.99429 0,1.37145 -0.17274,0.37715 -0.3141,0.0685 -0.3141,-0.68573 z m -13.79829,-4.44004 c 0,-0.27345 0.56044,-0.4972 1.24544,-0.4972 1.59662,0 1.59662,0.33972 0,0.70753 -0.685,0.1578 -1.24544,0.0631 -1.24544,-0.21033 z m 6.6943,-0.31195 c 0.42813,-0.15218 1.12869,-0.15218 1.55681,0 0.42813,0.15219 0.078,0.27671 -0.77838,0.27671 -0.85627,0 -1.20656,-0.12452 -0.77843,-0.27671 z m 5.92888,0.032 c 0.20693,-0.18229 0.74403,-0.20177 1.19354,-0.0433 0.49677,0.1751 0.3492,0.3051 -0.37621,0.33143 -0.65646,0.0239 -1.02428,-0.10584 -0.81733,-0.28814 z"
       style="fill:url(#linearGradient5849);fill-opacity:1"
       inkscape:export-filename="/home/pablo/Documentos/infylac/imagenes/armonia.png"
       inkscape:export-xdpi="91"
       inkscape:export-ydpi="91" />
    <path
       sodipodi:type="arc"
       style="fill:#000000;fill-opacity:0;stroke:#de8080;stroke-width:33.09999847;stroke-linecap:round;stroke-linejoin:bevel;stroke-miterlimit:4;stroke-opacity:0;stroke-dasharray:794.4, 33.1;stroke-dashoffset:0"
       id="path2996"
       sodipodi:cx="489"
       sodipodi:cy="453.36218"
       sodipodi:rx="74"
       sodipodi:ry="94"
       d="M 537.40632,524.46134 A 74,94 0 1 1 519.46903,367.70001 L 489,453.36218 z"
       sodipodi:start="0.85775202"
       sodipodi:end="5.1367556" />
    <path
       sodipodi:type="arc"
       style="fill:#000000;fill-opacity:0;stroke:#de8080;stroke-width:33.09999847;stroke-linecap:round;stroke-linejoin:bevel;stroke-miterlimit:4;stroke-opacity:0;stroke-dasharray:794.4, 33.1;stroke-dashoffset:0"
       id="path2998"
       sodipodi:cx="493"
       sodipodi:cy="418.36218"
       sodipodi:rx="9"
       sodipodi:ry="31"
       d="m 498.88725,441.80978 a 9,31 0 1 1 -2.18156,-51.69789 L 493,418.36218 z"
       sodipodi:start="0.85775202"
       sodipodi:end="5.1367556" />
    <path
       sodipodi:type="arc"
       style="fill:url(#radialGradient5146);fill-opacity:1;stroke:#660319;stroke-width:4.22181511;stroke-linecap:round;stroke-linejoin:bevel;stroke-miterlimit:4;stroke-opacity:1;stroke-dasharray:none;stroke-dashoffset:0"
       id="path3000"
       sodipodi:cx="471"
       sodipodi:cy="459.86218"
       sodipodi:rx="35"
       sodipodi:ry="61.5"
       d="M 493.89488,506.37918 A 35,61.5 0 1 1 490.5527,408.8538"
       sodipodi:start="0.85775202"
       sodipodi:end="5.3051444"
       transform="matrix(1.2939364,0.17655584,-0.09888925,0.68026561,-208.23616,78.966917)"
       sodipodi:open="true"
       inkscape:export-filename="/home/pablo/Documentos/infylac/imagenes/armonia.png"
       inkscape:export-xdpi="91"
       inkscape:export-ydpi="91" />
    <flowRoot
       xml:space="preserve"
       id="flowRoot4437"
       style="font-size:40px;font-style:normal;font-weight:normal;line-height:125%;letter-spacing:0px;word-spacing:0px;fill:#000000;fill-opacity:1;stroke:none;font-family:Sans"
       transform="matrix(0.68926972,0,0,0.6260414,204.3188,46.931198)"
       inkscape:export-filename="/home/pablo/Documentos/infylac/imagenes/armonia.png"
       inkscape:export-xdpi="91"
       inkscape:export-ydpi="91"><flowRegion
         id="flowRegion4439"><rect
           id="rect4441"
           width="106"
           height="50"
           x="165"
           y="654.36218" /></flowRegion><flowPara
         id="flowPara4443">DIOS</flowPara></flowRoot>    <path
       style="fill:none;stroke:#000000;stroke-width:1px;stroke-linecap:butt;stroke-linejoin:miter;stroke-opacity:1;marker-start:url(#Arrow1Lstart);marker-end:url(#Arrow1Lend)"
       d="m 164.04876,478.19149 142.12845,-0.70711"
       id="path3070"
       inkscape:connector-type="polyline"
       inkscape:connector-curvature="0"
       inkscape:export-filename="/home/pablo/Documentos/infylac/imagenes/armonia.png"
       inkscape:export-xdpi="91"
       inkscape:export-ydpi="91" />
    <flowRoot
       xml:space="preserve"
       id="flowRoot5378"
       style="font-size:40px;font-style:normal;font-weight:normal;line-height:125%;letter-spacing:0px;word-spacing:0px;fill:#000000;fill-opacity:1;stroke:none;font-family:Sans"><flowRegion
         id="flowRegion5380"><rect
           id="rect5382"
           width="100.40916"
           height="41.012192"
           x="25.455843"
           y="553.85193" /></flowRegion><flowPara
         id="flowPara5384">relac</flowPara></flowRoot>    <text
       xml:space="preserve"
       style="font-size:20px;font-style:normal;font-weight:normal;line-height:125%;letter-spacing:0px;word-spacing:0px;fill:#000000;fill-opacity:1;stroke:none;font-family:Sans"
       x="188.7975"
       y="470.4133"
       id="text5386"
       sodipodi:linespacing="125%"
       inkscape:export-filename="/home/pablo/Documentos/infylac/imagenes/armonia.png"
       inkscape:export-xdpi="91"
       inkscape:export-ydpi="91"><tspan
         sodipodi:role="line"
         id="tspan5388"
         x="188.7975"
         y="470.4133"
         style="font-size:20px">RELACION</tspan></text>
  </g>
</svg>
