<?xml version="1.0" encoding="UTF-8" standalone="no"?>
<!-- Created with Inkscape (http://www.inkscape.org/) -->

<svg
   xmlns:dc="http://purl.org/dc/elements/1.1/"
   xmlns:cc="http://creativecommons.org/ns#"
   xmlns:rdf="http://www.w3.org/1999/02/22-rdf-syntax-ns#"
   xmlns:svg="http://www.w3.org/2000/svg"
   xmlns="http://www.w3.org/2000/svg"
   xmlns:xlink="http://www.w3.org/1999/xlink"
   xmlns:sodipodi="http://sodipodi.sourceforge.net/DTD/sodipodi-0.dtd"
   xmlns:inkscape="http://www.inkscape.org/namespaces/inkscape"
   width="210mm"
   height="297mm"
   id="svg3154"
   version="1.1"
   inkscape:version="0.48.4 r9939"
   sodipodi:docname="desarmonia.svg">
  <defs
     id="defs3156">
    <radialGradient
       inkscape:collect="always"
       xlink:href="#linearGradient5140"
       id="radialGradient5146"
       cx="424.70587"
       cy="463.71545"
       fx="424.70587"
       fy="463.71545"
       r="30.359251"
       gradientTransform="matrix(1.4165292,1.8556329,-0.92744164,2.3887954,253.16664,-1427.9729)"
       gradientUnits="userSpaceOnUse" />
    <linearGradient
       inkscape:collect="always"
       id="linearGradient5140">
      <stop
         style="stop-color:#660319;stop-opacity:1;"
         offset="0"
         id="stop5142" />
      <stop
         style="stop-color:#660319;stop-opacity:0;"
         offset="1"
         id="stop5144" />
    </linearGradient>
    <linearGradient
       inkscape:collect="always"
       xlink:href="#linearGradient5843"
       id="linearGradient5849"
       x1="124.97586"
       y1="342.73718"
       x2="146.28888"
       y2="343.44427"
       gradientUnits="userSpaceOnUse"
       gradientTransform="matrix(0.84698454,0,0,0.65681979,165.22003,254.68844)" />
    <linearGradient
       inkscape:collect="always"
       id="linearGradient5843">
      <stop
         style="stop-color:#000000;stop-opacity:1;"
         offset="0"
         id="stop5845" />
      <stop
         style="stop-color:#000000;stop-opacity:0;"
         offset="1"
         id="stop5847" />
    </linearGradient>
    <linearGradient
       y2="343.44427"
       x2="146.28888"
       y1="342.73718"
       x1="124.97586"
       gradientTransform="matrix(-0.81339487,-0.06354502,-0.05829141,0.65454679,335.78307,485.90464)"
       gradientUnits="userSpaceOnUse"
       id="linearGradient3152"
       xlink:href="#linearGradient5843"
       inkscape:collect="always" />
  </defs>
  <sodipodi:namedview
     id="base"
     pagecolor="#ffffff"
     bordercolor="#666666"
     borderopacity="1.0"
     inkscape:pageopacity="0.0"
     inkscape:pageshadow="2"
     inkscape:zoom="1.41"
     inkscape:cx="350"
     inkscape:cy="349.78723"
     inkscape:document-units="px"
     inkscape:current-layer="layer1"
     showgrid="false"
     inkscape:window-width="959"
     inkscape:window-height="744"
     inkscape:window-x="65"
     inkscape:window-y="24"
     inkscape:window-maximized="1" />
  <metadata
     id="metadata3159">
    <rdf:RDF>
      <cc:Work
         rdf:about="">
        <dc:format>image/svg+xml</dc:format>
        <dc:type
           rdf:resource="http://purl.org/dc/dcmitype/StillImage" />
        <dc:title></dc:title>
      </cc:Work>
    </rdf:RDF>
  </metadata>
  <g
     inkscape:label="Capa 1"
     inkscape:groupmode="layer"
     id="layer1">
    <path
       inkscape:connector-curvature="0"
       id="path5152"
       d="m 204.26935,744.49086 c -0.43825,-0.18953 -1.17783,-0.24731 -1.64354,-0.12841 -0.46571,0.11893 -0.10719,0.27398 0.79679,0.34461 0.90396,0.0706 1.28499,-0.0267 0.84675,-0.2162 z m -6.57414,-0.5136 c -0.43824,-0.18952 -1.17783,-0.2473 -1.64355,-0.12839 -0.46569,0.11891 -0.10719,0.27398 0.79682,0.3446 0.90393,0.0706 1.28496,-0.0267 0.84673,-0.21621 z m 10.36619,-0.49875 c 0.0683,-0.76436 -0.0531,-1.08873 -0.26969,-0.72078 -0.21642,0.36793 -0.27213,0.99333 -0.12377,1.38975 0.14833,0.39645 0.3254,0.0953 0.39346,-0.66897 z m -1.523,-0.13955 c 0.25988,-0.29886 0.36425,-1.53653 0.23188,-2.75038 -0.27185,-2.49312 1.04253,-8.76237 1.63315,-7.78963 0.21152,0.34837 0.54196,-1.13379 0.73431,-3.29372 0.19235,-2.15991 0.12336,-3.49241 -0.15334,-2.96108 -0.86222,1.65563 -0.89274,-5.90905 -0.0522,-12.94548 1.31418,-11.00211 1.36532,-13.2071 0.3732,-16.09114 -0.90951,-2.64392 -0.88428,-2.94508 0.60015,-7.16727 1.81791,-5.17052 1.86815,-9.45923 0.17342,-14.80797 -1.10382,-3.48383 -1.09864,-3.58427 0.33944,-6.60747 1.54829,-3.25474 1.51999,-5.34359 -0.0966,-7.13653 -1.31632,-1.45996 -4.82264,-1.63592 -6.48072,-0.32525 -2.88389,2.27962 -4.18454,9.33852 -1.85192,10.05059 0.78397,0.2393 1.30609,1.09537 1.47983,2.42627 0.21835,1.67264 -0.0892,2.44161 -1.6471,4.11971 -1.05354,1.13475 -1.96466,2.37965 -2.02471,2.7664 -0.0599,0.38676 -0.28233,0.22656 -0.49397,-0.35601 -0.21496,-0.59159 -0.53828,0.66363 -0.7324,2.84341 -0.19115,2.14642 -0.14079,3.81477 0.11188,3.70745 0.57229,-0.24307 0.77894,2.99799 0.80873,12.68561 0.0304,9.88214 0.43045,13.32278 2.63579,22.6713 2.29897,9.74547 2.56086,15.18372 0.8222,17.07441 -0.67576,0.73486 -2.28628,1.66804 -3.57892,2.07372 -1.29262,0.40567 -2.36839,0.94142 -2.39056,1.19055 -0.0596,0.66858 9.00495,1.25892 9.55839,0.6225 z m -12.89059,-1.54628 c 0.0683,-0.76437 -0.0532,-1.08873 -0.26973,-0.72079 -0.21638,0.36794 -0.27209,0.99333 -0.12374,1.38976 0.14835,0.39644 0.32542,0.0953 0.39347,-0.66897 z m 14.90866,-3.87325 c 0.0683,-0.76436 -0.0531,-1.08872 -0.26968,-0.72077 -0.21643,0.36793 -0.27212,0.99333 -0.12377,1.38976 0.14832,0.39642 0.32538,0.0954 0.39345,-0.66899 z m -14.41359,-1.68582 c 0.0683,-0.76435 -0.0531,-1.08871 -0.26971,-0.72076 -0.21641,0.36794 -0.27211,0.99332 -0.12377,1.38975 0.14834,0.39645 0.32542,0.0953 0.39348,-0.66899 z m 0.49507,-5.55904 c 0.0683,-0.76436 -0.0532,-1.08872 -0.26972,-0.72078 -0.2164,0.36793 -0.2721,0.99333 -0.12377,1.38977 0.14836,0.39642 0.32542,0.0953 0.39349,-0.66899 z m 0.49507,-5.55906 c 0.068,-0.76435 -0.0532,-1.0887 -0.26971,-0.72077 -0.21642,0.36793 -0.27211,0.99333 -0.12377,1.38975 0.14835,0.39642 0.3254,0.0954 0.39348,-0.66898 z m 14.90865,-3.87323 c 0.0683,-0.76437 -0.0533,-1.08873 -0.26968,-0.72079 -0.21642,0.36793 -0.27212,0.99334 -0.12377,1.38975 0.14832,0.39644 0.32539,0.0954 0.39345,-0.66896 z m -14.41359,-1.68581 c 0.0682,-0.76436 -0.0531,-1.08873 -0.26971,-0.72079 -0.21641,0.36794 -0.2721,0.99333 -0.12377,1.38977 0.14835,0.39642 0.32543,0.0953 0.39348,-0.66898 z m 14.90866,-3.87325 c 0.0682,-0.76436 -0.0533,-1.08872 -0.26968,-0.72079 -0.21643,0.36795 -0.27212,0.99335 -0.12377,1.38977 0.14831,0.39644 0.32539,0.0953 0.39345,-0.66898 z m -14.41358,-1.6858 c 0.068,-0.76437 -0.0533,-1.08874 -0.26972,-0.72078 -0.21641,0.36791 -0.2721,0.99332 -0.12378,1.38975 0.14836,0.39643 0.32542,0.0954 0.3935,-0.66897 z m 14.90864,-3.87324 c 0.0683,-0.76439 -0.0531,-1.08873 -0.26967,-0.72078 -0.21642,0.36792 -0.27212,0.99332 -0.12377,1.38974 0.1483,0.39643 0.32539,0.0953 0.39344,-0.66896 z m -14.41358,-1.68581 c 0.0683,-0.76437 -0.0531,-1.08873 -0.26972,-0.7208 -0.2164,0.36794 -0.27211,0.99334 -0.12376,1.38977 0.14835,0.39644 0.32543,0.0953 0.39348,-0.66897 z m 14.90866,-3.87326 c 0.0683,-0.76437 -0.0532,-1.08871 -0.26969,-0.72079 -0.21642,0.36794 -0.27212,0.99335 -0.12376,1.38977 0.14831,0.39645 0.32539,0.0953 0.39345,-0.66898 z m -14.41358,-1.6858 c 0.068,-0.76437 -0.0533,-1.08873 -0.26973,-0.72079 -0.2164,0.36795 -0.27209,0.99334 -0.12376,1.38976 0.14833,0.39643 0.32542,0.0953 0.39349,-0.66897 z m 14.90864,-3.87323 c 0.0683,-0.76439 -0.0531,-1.08875 -0.26969,-0.72081 -0.21641,0.36795 -0.27212,0.99333 -0.12376,1.38977 0.14832,0.39644 0.3254,0.0953 0.39345,-0.66896 z m -14.41358,-1.68581 c 0.0683,-0.7644 -0.0532,-1.08872 -0.26973,-0.72081 -0.21639,0.36795 -0.27209,0.99333 -0.12374,1.38977 0.14834,0.39644 0.3254,0.0954 0.39347,-0.66896 z m 14.90866,-3.87326 c 0.0683,-0.76437 -0.0532,-1.08872 -0.26969,-0.72079 -0.21643,0.36796 -0.27212,0.99332 -0.12378,1.38978 0.14834,0.39643 0.3254,0.0953 0.39347,-0.66899 z m -14.41359,-1.6858 c 0.068,-0.76439 -0.0531,-1.08873 -0.26972,-0.7208 -0.2164,0.36793 -0.2721,0.99334 -0.12378,1.38977 0.14836,0.39643 0.32543,0.0953 0.3935,-0.66897 z m 14.90865,-3.87326 c 0.0683,-0.76437 -0.0531,-1.08872 -0.26969,-0.72077 -0.21642,0.36793 -0.27212,0.99332 -0.12378,1.38976 0.14834,0.39642 0.32542,0.0953 0.39347,-0.66899 z m 0.49506,-5.55906 c 0.0683,-0.76436 -0.0531,-1.08872 -0.26968,-0.72077 -0.21643,0.36794 -0.2721,0.99332 -0.12377,1.38976 0.14832,0.39643 0.32538,0.0955 0.39345,-0.66899 z m 0.49508,-5.55904 c 0.0683,-0.76438 -0.0532,-1.08873 -0.26969,-0.72078 -0.21642,0.36793 -0.27212,0.99333 -0.12377,1.38976 0.14833,0.39643 0.32541,0.0953 0.39346,-0.66898 z m -14.4136,-1.68582 c 0.0683,-0.76436 -0.0532,-1.08871 -0.26971,-0.72077 -0.2164,0.36793 -0.2721,0.99332 -0.12377,1.38975 0.14836,0.39644 0.32541,0.0955 0.39348,-0.66898 z m 14.90867,-3.87324 c 0.0683,-0.76436 -0.0531,-1.08872 -0.26971,-0.72078 -0.21641,0.36794 -0.27212,0.99334 -0.12375,1.38977 0.14832,0.39641 0.32539,0.0953 0.39346,-0.66899 z m -14.41359,-1.68581 c 0.068,-0.76436 -0.0532,-1.08872 -0.26972,-0.72078 -0.21641,0.36794 -0.2721,0.99333 -0.12377,1.38976 0.14835,0.39644 0.32542,0.0954 0.39349,-0.66898 z m 14.90865,-3.87324 c 0.0683,-0.76436 -0.0531,-1.08871 -0.26968,-0.72077 -0.21643,0.36793 -0.27212,0.99333 -0.12377,1.38976 0.14831,0.39642 0.32538,0.0953 0.39345,-0.66899 z m -14.41359,-1.68581 c 0.0683,-0.76435 -0.0531,-1.08873 -0.26971,-0.72078 -0.21642,0.36794 -0.27211,0.99332 -0.12377,1.38975 0.14835,0.39645 0.32542,0.0954 0.39348,-0.66897 z m 14.96759,-3.36128 c 0.0247,-0.27711 -0.54679,-0.55007 -1.26995,-0.60657 -1.68554,-0.13168 -1.71621,0.21258 -0.0638,0.71698 0.70892,0.2164 1.30914,0.1666 1.33379,-0.11041 z m -7.03904,-0.86822 c -0.43823,-0.18953 -1.17782,-0.24731 -1.64354,-0.1284 -0.46569,0.1189 -0.10719,0.27397 0.7968,0.34459 0.90394,0.0706 1.28498,-0.0266 0.84674,-0.21619 z m -6.26201,-0.4566 c -0.202,-0.20179 -0.76727,-0.26583 -1.25614,-0.14239 -0.54023,0.13648 -0.39619,0.28039 0.36728,0.36689 0.69087,0.0785 1.09087,-0.0228 0.88886,-0.22457 z"
       style="fill:url(#linearGradient3152);fill-opacity:1"
       inkscape:export-filename="/home/pablo/Documentos/infylac/imagenes/desarmonia.png"
       inkscape:export-xdpi="89.999229"
       inkscape:export-ydpi="89.999229" />
    <path
       sodipodi:type="arc"
       style="fill:url(#radialGradient5146);fill-opacity:1;stroke:#660319;stroke-width:4.16629934;stroke-linecap:round;stroke-linejoin:bevel;stroke-miterlimit:4;stroke-opacity:1;stroke-dasharray:none;stroke-dashoffset:0"
       id="path3000"
       sodipodi:cx="471"
       sodipodi:cy="459.86218"
       sodipodi:rx="35"
       sodipodi:ry="61.5"
       d="M 493.89488,506.37918 A 35,61.5 0 1 1 490.5527,408.8538"
       sodipodi:start="0.85775202"
       sodipodi:end="5.3051444"
       transform="matrix(1.3179285,0.17799207,-0.10072283,0.6857994,-169.99956,304.20593)"
       sodipodi:open="true"
       inkscape:export-filename="/home/pablo/Documentos/infylac/imagenes/desarmonia.png"
       inkscape:export-xdpi="89"
       inkscape:export-ydpi="89" />
    <flowRoot
       xml:space="preserve"
       id="flowRoot4437"
       style="font-size:40px;font-style:normal;font-weight:normal;line-height:125%;letter-spacing:0px;word-spacing:0px;fill:#000000;fill-opacity:1;stroke:none;font-family:Sans"
       transform="matrix(0.68926972,0,0,0.6260414,250.02895,276.45743)"
       inkscape:export-filename="/home/pablo/Documentos/infylac/imagenes/desarmonia.png"
       inkscape:export-xdpi="89.999229"
       inkscape:export-ydpi="89.999229"><flowRegion
         id="flowRegion4439"><rect
           id="rect4441"
           width="106"
           height="50"
           x="165"
           y="654.36218" /></flowRegion><flowPara
         id="flowPara4443">DIOS</flowPara></flowRoot>    <flowRoot
       xml:space="preserve"
       id="flowRoot3197"
       style="font-size:26.87235832px;font-style:normal;font-weight:normal;line-height:125%;letter-spacing:0px;word-spacing:0px;fill:#000000;fill-opacity:1;stroke:none;font-family:Sans"
       transform="matrix(0.77073495,0,0,0.71869291,51.26733,143.70063)"
       inkscape:export-filename="/home/pablo/Documentos/infylac/imagenes/desarmonia.png"
       inkscape:export-xdpi="89.999229"
       inkscape:export-ydpi="89.999229"><flowRegion
         id="flowRegion3199"><rect
           id="rect3201"
           width="115.92177"
           height="33.702263"
           x="247.51773"
           y="795.62457"
           style="font-size:26.87235832px" /></flowRegion><flowPara
         id="flowPara3203">PECADO</flowPara></flowRoot>  </g>
</svg>
